<svg width="30" height="30" viewBox="0 0 30 30" fill="none" xmlns="http://www.w3.org/2000/svg">
<path d="M28.9991 21.9634V26.1785C29.0007 26.5698 28.9204 26.9571 28.7633 27.3157C28.6063 27.6742 28.3759 27.9961 28.087 28.2606C27.798 28.5251 27.457 28.7265 27.0855 28.8519C26.7141 28.9773 26.3206 29.0238 25.9301 28.9886C21.5979 28.5188 17.4366 27.0414 13.7805 24.6751C10.3789 22.5179 7.49497 19.6397 5.33347 16.2449C2.9542 12.5794 1.47354 8.40611 1.01143 4.06313C0.976246 3.67459 1.02251 3.28299 1.14728 2.91328C1.27205 2.54356 1.47259 2.20382 1.73613 1.91569C1.99967 1.62756 2.32044 1.39736 2.67801 1.23973C3.03558 1.0821 3.42212 1.0005 3.81301 1.00014H8.03651C8.71974 0.993425 9.3821 1.23489 9.90014 1.67952C10.4182 2.12415 10.7566 2.74161 10.8522 3.41681C11.0304 4.76574 11.361 6.09022 11.8377 7.36498C12.0271 7.86788 12.0681 8.41443 11.9558 8.93987C11.8435 9.4653 11.5826 9.94761 11.2041 10.3296L9.41619 12.114C11.4203 15.6316 14.3386 18.5441 17.8632 20.5443L19.6511 18.7599C20.0339 18.3821 20.5172 18.1218 21.0436 18.0097C21.5701 17.8977 22.1178 17.9386 22.6217 18.1276C23.8989 18.6033 25.226 18.9332 26.5777 19.1111C27.2615 19.2074 27.8861 19.5512 28.3326 20.0771C28.779 20.603 29.0163 21.2743 28.9991 21.9634Z" stroke="white" stroke-width="2" stroke-linecap="round" stroke-linejoin="round"/>
</svg>
